<mxfile host="app.diagrams.net" agent="Mozilla/5.0 (Windows NT 10.0; Win64; x64) AppleWebKit/537.36 (KHTML, like Gecko) Chrome/132.0.0.0 Safari/537.36" version="26.0.10">
  <diagram id="C5RBs43oDa-KdzZeNtuy" name="Page-1">
    <mxGraphModel dx="2501" dy="866" grid="1" gridSize="10" guides="1" tooltips="1" connect="1" arrows="1" fold="1" page="1" pageScale="1" pageWidth="827" pageHeight="1169" math="0" shadow="0">
      <root>
        <mxCell id="WIyWlLk6GJQsqaUBKTNV-0" />
        <mxCell id="WIyWlLk6GJQsqaUBKTNV-1" parent="WIyWlLk6GJQsqaUBKTNV-0" />
        <mxCell id="2pWyTVWAHo8X-ECZg1oG-11" value="" style="edgeStyle=orthogonalEdgeStyle;rounded=0;orthogonalLoop=1;jettySize=auto;html=1;" parent="WIyWlLk6GJQsqaUBKTNV-1" source="WIyWlLk6GJQsqaUBKTNV-3" target="2pWyTVWAHo8X-ECZg1oG-10" edge="1">
          <mxGeometry relative="1" as="geometry" />
        </mxCell>
        <mxCell id="WIyWlLk6GJQsqaUBKTNV-3" value="Menu principale" style="rounded=1;whiteSpace=wrap;html=1;fontSize=12;glass=0;strokeWidth=1;shadow=0;" parent="WIyWlLk6GJQsqaUBKTNV-1" vertex="1">
          <mxGeometry x="160" y="160" width="120" height="40" as="geometry" />
        </mxCell>
        <mxCell id="2pWyTVWAHo8X-ECZg1oG-31" style="edgeStyle=orthogonalEdgeStyle;rounded=0;orthogonalLoop=1;jettySize=auto;html=1;entryX=0.5;entryY=0;entryDx=0;entryDy=0;" parent="WIyWlLk6GJQsqaUBKTNV-1" source="WIyWlLk6GJQsqaUBKTNV-7" target="2pWyTVWAHo8X-ECZg1oG-27" edge="1">
          <mxGeometry relative="1" as="geometry" />
        </mxCell>
        <mxCell id="WIyWlLk6GJQsqaUBKTNV-7" value="Start" style="rounded=1;whiteSpace=wrap;html=1;fontSize=12;glass=0;strokeWidth=1;shadow=0;" parent="WIyWlLk6GJQsqaUBKTNV-1" vertex="1">
          <mxGeometry y="340" width="120" height="40" as="geometry" />
        </mxCell>
        <mxCell id="2pWyTVWAHo8X-ECZg1oG-1" style="edgeStyle=orthogonalEdgeStyle;rounded=0;orthogonalLoop=1;jettySize=auto;html=1;exitX=0.5;exitY=1;exitDx=0;exitDy=0;" parent="WIyWlLk6GJQsqaUBKTNV-1" source="2pWyTVWAHo8X-ECZg1oG-7" target="WIyWlLk6GJQsqaUBKTNV-3" edge="1">
          <mxGeometry relative="1" as="geometry" />
        </mxCell>
        <mxCell id="2pWyTVWAHo8X-ECZg1oG-0" value="" style="ellipse;whiteSpace=wrap;html=1;aspect=fixed;" parent="WIyWlLk6GJQsqaUBKTNV-1" vertex="1">
          <mxGeometry x="210" y="30" width="20" height="20" as="geometry" />
        </mxCell>
        <mxCell id="2pWyTVWAHo8X-ECZg1oG-8" value="" style="edgeStyle=orthogonalEdgeStyle;rounded=0;orthogonalLoop=1;jettySize=auto;html=1;exitX=0.5;exitY=1;exitDx=0;exitDy=0;" parent="WIyWlLk6GJQsqaUBKTNV-1" source="2pWyTVWAHo8X-ECZg1oG-0" target="2pWyTVWAHo8X-ECZg1oG-7" edge="1">
          <mxGeometry relative="1" as="geometry">
            <mxPoint x="220" y="50" as="sourcePoint" />
            <mxPoint x="220" y="160" as="targetPoint" />
          </mxGeometry>
        </mxCell>
        <mxCell id="2pWyTVWAHo8X-ECZg1oG-7" value="" style="rhombus;whiteSpace=wrap;html=1;shadow=0;fontFamily=Helvetica;fontSize=12;align=center;strokeWidth=1;spacing=6;spacingTop=-4;" parent="WIyWlLk6GJQsqaUBKTNV-1" vertex="1">
          <mxGeometry x="210" y="110" width="20" height="20" as="geometry" />
        </mxCell>
        <mxCell id="2pWyTVWAHo8X-ECZg1oG-12" style="edgeStyle=orthogonalEdgeStyle;rounded=0;orthogonalLoop=1;jettySize=auto;html=1;entryX=0.5;entryY=0;entryDx=0;entryDy=0;" parent="WIyWlLk6GJQsqaUBKTNV-1" source="2pWyTVWAHo8X-ECZg1oG-10" target="WIyWlLk6GJQsqaUBKTNV-7" edge="1">
          <mxGeometry relative="1" as="geometry" />
        </mxCell>
        <mxCell id="2pWyTVWAHo8X-ECZg1oG-15" value="" style="edgeStyle=orthogonalEdgeStyle;rounded=0;orthogonalLoop=1;jettySize=auto;html=1;" parent="WIyWlLk6GJQsqaUBKTNV-1" source="2pWyTVWAHo8X-ECZg1oG-10" target="2pWyTVWAHo8X-ECZg1oG-13" edge="1">
          <mxGeometry relative="1" as="geometry" />
        </mxCell>
        <mxCell id="2pWyTVWAHo8X-ECZg1oG-16" style="edgeStyle=orthogonalEdgeStyle;rounded=0;orthogonalLoop=1;jettySize=auto;html=1;entryX=0.5;entryY=0;entryDx=0;entryDy=0;" parent="WIyWlLk6GJQsqaUBKTNV-1" source="2pWyTVWAHo8X-ECZg1oG-10" target="2pWyTVWAHo8X-ECZg1oG-14" edge="1">
          <mxGeometry relative="1" as="geometry" />
        </mxCell>
        <mxCell id="2pWyTVWAHo8X-ECZg1oG-10" value="Selezione bottone" style="rhombus;whiteSpace=wrap;html=1;shadow=0;fontFamily=Helvetica;fontSize=12;align=center;strokeWidth=1;spacing=6;spacingTop=-4;" parent="WIyWlLk6GJQsqaUBKTNV-1" vertex="1">
          <mxGeometry x="170" y="220" width="100" height="80" as="geometry" />
        </mxCell>
        <mxCell id="2pWyTVWAHo8X-ECZg1oG-18" value="" style="edgeStyle=orthogonalEdgeStyle;rounded=0;orthogonalLoop=1;jettySize=auto;html=1;" parent="WIyWlLk6GJQsqaUBKTNV-1" source="2pWyTVWAHo8X-ECZg1oG-13" target="2pWyTVWAHo8X-ECZg1oG-17" edge="1">
          <mxGeometry relative="1" as="geometry" />
        </mxCell>
        <mxCell id="2pWyTVWAHo8X-ECZg1oG-13" value="Tutorial" style="rounded=1;whiteSpace=wrap;html=1;fontSize=12;glass=0;strokeWidth=1;shadow=0;" parent="WIyWlLk6GJQsqaUBKTNV-1" vertex="1">
          <mxGeometry x="160" y="340" width="120" height="40" as="geometry" />
        </mxCell>
        <mxCell id="2pWyTVWAHo8X-ECZg1oG-20" value="" style="edgeStyle=orthogonalEdgeStyle;rounded=0;orthogonalLoop=1;jettySize=auto;html=1;" parent="WIyWlLk6GJQsqaUBKTNV-1" source="2pWyTVWAHo8X-ECZg1oG-14" target="2pWyTVWAHo8X-ECZg1oG-19" edge="1">
          <mxGeometry relative="1" as="geometry" />
        </mxCell>
        <mxCell id="2pWyTVWAHo8X-ECZg1oG-14" value="Crediti" style="rounded=1;whiteSpace=wrap;html=1;fontSize=12;glass=0;strokeWidth=1;shadow=0;" parent="WIyWlLk6GJQsqaUBKTNV-1" vertex="1">
          <mxGeometry x="310" y="340" width="120" height="40" as="geometry" />
        </mxCell>
        <mxCell id="2pWyTVWAHo8X-ECZg1oG-25" style="edgeStyle=orthogonalEdgeStyle;rounded=0;orthogonalLoop=1;jettySize=auto;html=1;entryX=0;entryY=1;entryDx=0;entryDy=0;" parent="WIyWlLk6GJQsqaUBKTNV-1" edge="1">
          <mxGeometry relative="1" as="geometry">
            <mxPoint x="215" y="475" as="sourcePoint" />
            <mxPoint x="286" y="540" as="targetPoint" />
            <Array as="points">
              <mxPoint x="215" y="540" />
            </Array>
          </mxGeometry>
        </mxCell>
        <mxCell id="2pWyTVWAHo8X-ECZg1oG-17" value="Parte video tutorial" style="rounded=1;whiteSpace=wrap;html=1;fontSize=12;glass=0;strokeWidth=1;shadow=0;" parent="WIyWlLk6GJQsqaUBKTNV-1" vertex="1">
          <mxGeometry x="160" y="440" width="120" height="40" as="geometry" />
        </mxCell>
        <mxCell id="2pWyTVWAHo8X-ECZg1oG-24" style="edgeStyle=orthogonalEdgeStyle;rounded=0;orthogonalLoop=1;jettySize=auto;html=1;entryX=1;entryY=0.5;entryDx=0;entryDy=0;" parent="WIyWlLk6GJQsqaUBKTNV-1" source="2pWyTVWAHo8X-ECZg1oG-19" target="2pWyTVWAHo8X-ECZg1oG-22" edge="1">
          <mxGeometry relative="1" as="geometry">
            <Array as="points">
              <mxPoint x="370" y="540" />
            </Array>
          </mxGeometry>
        </mxCell>
        <mxCell id="2pWyTVWAHo8X-ECZg1oG-19" value="Visualizza crediti" style="rounded=1;whiteSpace=wrap;html=1;fontSize=12;glass=0;strokeWidth=1;shadow=0;" parent="WIyWlLk6GJQsqaUBKTNV-1" vertex="1">
          <mxGeometry x="310" y="440" width="120" height="40" as="geometry" />
        </mxCell>
        <mxCell id="2pWyTVWAHo8X-ECZg1oG-26" style="edgeStyle=orthogonalEdgeStyle;rounded=0;orthogonalLoop=1;jettySize=auto;html=1;entryX=1;entryY=0.5;entryDx=0;entryDy=0;" parent="WIyWlLk6GJQsqaUBKTNV-1" source="2pWyTVWAHo8X-ECZg1oG-22" target="2pWyTVWAHo8X-ECZg1oG-7" edge="1">
          <mxGeometry relative="1" as="geometry">
            <Array as="points">
              <mxPoint x="296" y="580" />
              <mxPoint x="480" y="580" />
              <mxPoint x="480" y="120" />
            </Array>
          </mxGeometry>
        </mxCell>
        <mxCell id="2pWyTVWAHo8X-ECZg1oG-22" value="" style="rhombus;whiteSpace=wrap;html=1;shadow=0;fontFamily=Helvetica;fontSize=12;align=center;strokeWidth=1;spacing=6;spacingTop=-4;" parent="WIyWlLk6GJQsqaUBKTNV-1" vertex="1">
          <mxGeometry x="286" y="530" width="20" height="20" as="geometry" />
        </mxCell>
        <mxCell id="2pWyTVWAHo8X-ECZg1oG-32" style="edgeStyle=orthogonalEdgeStyle;rounded=0;orthogonalLoop=1;jettySize=auto;html=1;entryX=0.5;entryY=0;entryDx=0;entryDy=0;" parent="WIyWlLk6GJQsqaUBKTNV-1" source="2pWyTVWAHo8X-ECZg1oG-27" target="2pWyTVWAHo8X-ECZg1oG-28" edge="1">
          <mxGeometry relative="1" as="geometry" />
        </mxCell>
        <mxCell id="2pWyTVWAHo8X-ECZg1oG-27" value="" style="rhombus;whiteSpace=wrap;html=1;shadow=0;fontFamily=Helvetica;fontSize=12;align=center;strokeWidth=1;spacing=6;spacingTop=-4;" parent="WIyWlLk6GJQsqaUBKTNV-1" vertex="1">
          <mxGeometry x="-33" y="465" width="20" height="20" as="geometry" />
        </mxCell>
        <mxCell id="2pWyTVWAHo8X-ECZg1oG-35" value="" style="edgeStyle=orthogonalEdgeStyle;rounded=0;orthogonalLoop=1;jettySize=auto;html=1;" parent="WIyWlLk6GJQsqaUBKTNV-1" source="2pWyTVWAHo8X-ECZg1oG-28" target="2pWyTVWAHo8X-ECZg1oG-34" edge="1">
          <mxGeometry relative="1" as="geometry" />
        </mxCell>
        <mxCell id="2pWyTVWAHo8X-ECZg1oG-28" value="Caricamento stanza" style="rounded=1;whiteSpace=wrap;html=1;fontSize=12;glass=0;strokeWidth=1;shadow=0;" parent="WIyWlLk6GJQsqaUBKTNV-1" vertex="1">
          <mxGeometry x="-83" y="525" width="120" height="40" as="geometry" />
        </mxCell>
        <mxCell id="2pWyTVWAHo8X-ECZg1oG-39" style="edgeStyle=orthogonalEdgeStyle;rounded=0;orthogonalLoop=1;jettySize=auto;html=1;entryX=0.5;entryY=0;entryDx=0;entryDy=0;" parent="WIyWlLk6GJQsqaUBKTNV-1" source="2pWyTVWAHo8X-ECZg1oG-34" target="2pWyTVWAHo8X-ECZg1oG-36" edge="1">
          <mxGeometry relative="1" as="geometry" />
        </mxCell>
        <mxCell id="2pWyTVWAHo8X-ECZg1oG-41" style="edgeStyle=orthogonalEdgeStyle;rounded=0;orthogonalLoop=1;jettySize=auto;html=1;entryX=0.5;entryY=0;entryDx=0;entryDy=0;" parent="WIyWlLk6GJQsqaUBKTNV-1" target="2pWyTVWAHo8X-ECZg1oG-38" edge="1">
          <mxGeometry relative="1" as="geometry">
            <mxPoint x="-77.05882352941194" y="605.0588235294117" as="sourcePoint" />
          </mxGeometry>
        </mxCell>
        <mxCell id="2pWyTVWAHo8X-ECZg1oG-34" value="" style="rhombus;whiteSpace=wrap;html=1;shadow=0;fontFamily=Helvetica;fontSize=12;align=center;strokeWidth=1;spacing=6;spacingTop=-4;" parent="WIyWlLk6GJQsqaUBKTNV-1" vertex="1">
          <mxGeometry x="-33" y="595" width="20" height="20" as="geometry" />
        </mxCell>
        <mxCell id="jva41PUH1tPTdCb0gD0E-10" value="" style="edgeStyle=none;curved=1;rounded=0;orthogonalLoop=1;jettySize=auto;html=1;fontSize=12;startSize=8;endSize=8;" parent="WIyWlLk6GJQsqaUBKTNV-1" source="2pWyTVWAHo8X-ECZg1oG-36" target="jva41PUH1tPTdCb0gD0E-2" edge="1">
          <mxGeometry relative="1" as="geometry" />
        </mxCell>
        <mxCell id="2pWyTVWAHo8X-ECZg1oG-36" value="Accesso a menu virtuale" style="rounded=1;whiteSpace=wrap;html=1;fontSize=12;glass=0;strokeWidth=1;shadow=0;" parent="WIyWlLk6GJQsqaUBKTNV-1" vertex="1">
          <mxGeometry x="-239" y="675" width="120" height="40" as="geometry" />
        </mxCell>
        <mxCell id="2pWyTVWAHo8X-ECZg1oG-37" value="Interazione con personaggio non giocante" style="rounded=1;whiteSpace=wrap;html=1;fontSize=12;glass=0;strokeWidth=1;shadow=0;" parent="WIyWlLk6GJQsqaUBKTNV-1" vertex="1">
          <mxGeometry x="-82" y="675" width="122" height="45" as="geometry" />
        </mxCell>
        <mxCell id="2pWyTVWAHo8X-ECZg1oG-38" value="Interazione con oggetti 3D" style="rounded=1;whiteSpace=wrap;html=1;fontSize=12;glass=0;strokeWidth=1;shadow=0;" parent="WIyWlLk6GJQsqaUBKTNV-1" vertex="1">
          <mxGeometry x="91" y="675" width="120" height="40" as="geometry" />
        </mxCell>
        <mxCell id="2pWyTVWAHo8X-ECZg1oG-40" style="edgeStyle=orthogonalEdgeStyle;rounded=0;orthogonalLoop=1;jettySize=auto;html=1;entryX=0.458;entryY=0.25;entryDx=0;entryDy=0;entryPerimeter=0;exitX=0.5;exitY=1;exitDx=0;exitDy=0;" parent="WIyWlLk6GJQsqaUBKTNV-1" edge="1">
          <mxGeometry relative="1" as="geometry">
            <mxPoint x="-22" y="615" as="sourcePoint" />
            <mxPoint x="-23.04000000000019" y="675" as="targetPoint" />
            <Array as="points">
              <mxPoint x="-23" y="615" />
            </Array>
          </mxGeometry>
        </mxCell>
        <mxCell id="2pWyTVWAHo8X-ECZg1oG-42" value="Video tutorial" style="rounded=1;whiteSpace=wrap;html=1;fontSize=12;glass=0;strokeWidth=1;shadow=0;" parent="WIyWlLk6GJQsqaUBKTNV-1" vertex="1">
          <mxGeometry x="-98.5" y="852" width="120" height="40" as="geometry" />
        </mxCell>
        <mxCell id="2pWyTVWAHo8X-ECZg1oG-50" value="Reset scena" style="rounded=1;whiteSpace=wrap;html=1;fontSize=12;glass=0;strokeWidth=1;shadow=0;" parent="WIyWlLk6GJQsqaUBKTNV-1" vertex="1">
          <mxGeometry x="-379.5" y="852" width="120" height="40" as="geometry" />
        </mxCell>
        <mxCell id="2pWyTVWAHo8X-ECZg1oG-53" value="" style="rhombus;whiteSpace=wrap;html=1;shadow=0;fontFamily=Helvetica;fontSize=12;align=center;strokeWidth=1;spacing=6;spacingTop=-4;" parent="WIyWlLk6GJQsqaUBKTNV-1" vertex="1">
          <mxGeometry x="50" y="750" width="20" height="20" as="geometry" />
        </mxCell>
        <mxCell id="2pWyTVWAHo8X-ECZg1oG-63" value="" style="edgeStyle=orthogonalEdgeStyle;rounded=0;orthogonalLoop=1;jettySize=auto;html=1;" parent="WIyWlLk6GJQsqaUBKTNV-1" source="2pWyTVWAHo8X-ECZg1oG-60" target="2pWyTVWAHo8X-ECZg1oG-62" edge="1">
          <mxGeometry relative="1" as="geometry" />
        </mxCell>
        <mxCell id="2pWyTVWAHo8X-ECZg1oG-60" value="Termina gioco" style="rounded=1;whiteSpace=wrap;html=1;fontSize=12;glass=0;strokeWidth=1;shadow=0;" parent="WIyWlLk6GJQsqaUBKTNV-1" vertex="1">
          <mxGeometry x="-239.5" y="852" width="120" height="40" as="geometry" />
        </mxCell>
        <mxCell id="2pWyTVWAHo8X-ECZg1oG-62" value="" style="ellipse;whiteSpace=wrap;html=1;aspect=fixed;" parent="WIyWlLk6GJQsqaUBKTNV-1" vertex="1">
          <mxGeometry x="-189.5" y="919" width="20" height="20" as="geometry" />
        </mxCell>
        <mxCell id="2pWyTVWAHo8X-ECZg1oG-64" value="" style="ellipse;whiteSpace=wrap;html=1;aspect=fixed;fillColor=#000000;" parent="WIyWlLk6GJQsqaUBKTNV-1" vertex="1">
          <mxGeometry x="-184.5" y="924" width="10" height="10" as="geometry" />
        </mxCell>
        <mxCell id="jva41PUH1tPTdCb0gD0E-4" style="edgeStyle=none;curved=1;rounded=0;orthogonalLoop=1;jettySize=auto;html=1;entryX=0.5;entryY=0;entryDx=0;entryDy=0;fontSize=12;startSize=8;endSize=8;" parent="WIyWlLk6GJQsqaUBKTNV-1" target="2pWyTVWAHo8X-ECZg1oG-60" edge="1">
          <mxGeometry relative="1" as="geometry">
            <mxPoint x="-179.26525198938998" y="816.787798408488" as="sourcePoint" />
          </mxGeometry>
        </mxCell>
        <mxCell id="jva41PUH1tPTdCb0gD0E-2" value="Selezione bottone" style="rhombus;whiteSpace=wrap;html=1;shadow=0;fontFamily=Helvetica;fontSize=12;align=center;strokeWidth=1;spacing=6;spacingTop=-4;" parent="WIyWlLk6GJQsqaUBKTNV-1" vertex="1">
          <mxGeometry x="-229" y="755" width="100" height="80" as="geometry" />
        </mxCell>
        <mxCell id="jva41PUH1tPTdCb0gD0E-8" style="edgeStyle=orthogonalEdgeStyle;rounded=0;orthogonalLoop=1;jettySize=auto;html=1;entryX=0.5;entryY=0;entryDx=0;entryDy=0;exitX=1;exitY=0.5;exitDx=0;exitDy=0;" parent="WIyWlLk6GJQsqaUBKTNV-1" source="jva41PUH1tPTdCb0gD0E-2" target="2pWyTVWAHo8X-ECZg1oG-42" edge="1">
          <mxGeometry relative="1" as="geometry">
            <mxPoint x="-128.99882352941194" y="754.9988235294118" as="sourcePoint" />
            <mxPoint x="99.06" y="824.94" as="targetPoint" />
          </mxGeometry>
        </mxCell>
        <mxCell id="jva41PUH1tPTdCb0gD0E-9" style="edgeStyle=orthogonalEdgeStyle;rounded=0;orthogonalLoop=1;jettySize=auto;html=1;entryX=0.5;entryY=0;entryDx=0;entryDy=0;exitX=0;exitY=0.5;exitDx=0;exitDy=0;" parent="WIyWlLk6GJQsqaUBKTNV-1" source="jva41PUH1tPTdCb0gD0E-2" target="2pWyTVWAHo8X-ECZg1oG-50" edge="1">
          <mxGeometry relative="1" as="geometry">
            <mxPoint x="-229" y="790" as="sourcePoint" />
            <mxPoint x="-374" y="860" as="targetPoint" />
          </mxGeometry>
        </mxCell>
        <mxCell id="jva41PUH1tPTdCb0gD0E-12" style="edgeStyle=orthogonalEdgeStyle;rounded=0;orthogonalLoop=1;jettySize=auto;html=1;entryX=0;entryY=0.5;entryDx=0;entryDy=0;" parent="WIyWlLk6GJQsqaUBKTNV-1" target="2pWyTVWAHo8X-ECZg1oG-27" edge="1">
          <mxGeometry relative="1" as="geometry">
            <mxPoint x="-380" y="870" as="sourcePoint" />
            <mxPoint x="-503" y="880" as="targetPoint" />
            <Array as="points">
              <mxPoint x="-390" y="870" />
              <mxPoint x="-400" y="870" />
              <mxPoint x="-400" y="475" />
            </Array>
          </mxGeometry>
        </mxCell>
        <mxCell id="jva41PUH1tPTdCb0gD0E-13" value="Riproduzione video" style="rounded=1;whiteSpace=wrap;html=1;fontSize=12;glass=0;strokeWidth=1;shadow=0;" parent="WIyWlLk6GJQsqaUBKTNV-1" vertex="1">
          <mxGeometry x="-98.5" y="919" width="120" height="40" as="geometry" />
        </mxCell>
        <mxCell id="jva41PUH1tPTdCb0gD0E-14" style="edgeStyle=none;curved=1;rounded=0;orthogonalLoop=1;jettySize=auto;html=1;entryX=0.487;entryY=-0.013;entryDx=0;entryDy=0;entryPerimeter=0;fontSize=12;startSize=8;endSize=8;exitX=0.486;exitY=1.002;exitDx=0;exitDy=0;exitPerimeter=0;" parent="WIyWlLk6GJQsqaUBKTNV-1" source="2pWyTVWAHo8X-ECZg1oG-42" target="jva41PUH1tPTdCb0gD0E-13" edge="1">
          <mxGeometry relative="1" as="geometry" />
        </mxCell>
        <mxCell id="jva41PUH1tPTdCb0gD0E-19" style="edgeStyle=orthogonalEdgeStyle;rounded=0;orthogonalLoop=1;jettySize=auto;html=1;entryX=0.5;entryY=0;entryDx=0;entryDy=0;exitX=0.5;exitY=1;exitDx=0;exitDy=0;" parent="WIyWlLk6GJQsqaUBKTNV-1" source="2pWyTVWAHo8X-ECZg1oG-38" target="2pWyTVWAHo8X-ECZg1oG-53" edge="1">
          <mxGeometry relative="1" as="geometry">
            <mxPoint x="170.00117647058806" y="819.9988235294118" as="sourcePoint" />
            <mxPoint x="398.06" y="889.94" as="targetPoint" />
            <Array as="points">
              <mxPoint x="151" y="735" />
              <mxPoint x="60" y="735" />
            </Array>
          </mxGeometry>
        </mxCell>
        <mxCell id="jva41PUH1tPTdCb0gD0E-20" style="edgeStyle=orthogonalEdgeStyle;rounded=0;orthogonalLoop=1;jettySize=auto;html=1;entryX=0;entryY=0.5;entryDx=0;entryDy=0;exitX=0.5;exitY=1;exitDx=0;exitDy=0;" parent="WIyWlLk6GJQsqaUBKTNV-1" source="2pWyTVWAHo8X-ECZg1oG-37" target="2pWyTVWAHo8X-ECZg1oG-53" edge="1">
          <mxGeometry relative="1" as="geometry">
            <mxPoint x="105.49000000000001" y="777.5" as="sourcePoint" />
            <mxPoint x="14.490000000000002" y="812.5" as="targetPoint" />
            <Array as="points">
              <mxPoint x="-23" y="760" />
            </Array>
          </mxGeometry>
        </mxCell>
        <mxCell id="jva41PUH1tPTdCb0gD0E-22" style="edgeStyle=orthogonalEdgeStyle;rounded=0;orthogonalLoop=1;jettySize=auto;html=1;entryX=0.5;entryY=1;entryDx=0;entryDy=0;" parent="WIyWlLk6GJQsqaUBKTNV-1" target="2pWyTVWAHo8X-ECZg1oG-53" edge="1">
          <mxGeometry relative="1" as="geometry">
            <mxPoint x="21.501176470588064" y="938.9988235294118" as="sourcePoint" />
            <mxPoint x="249.56" y="1008.94" as="targetPoint" />
          </mxGeometry>
        </mxCell>
        <mxCell id="jva41PUH1tPTdCb0gD0E-25" style="edgeStyle=orthogonalEdgeStyle;rounded=0;orthogonalLoop=1;jettySize=auto;html=1;exitX=1;exitY=0.5;exitDx=0;exitDy=0;entryX=1;entryY=0;entryDx=0;entryDy=0;" parent="WIyWlLk6GJQsqaUBKTNV-1" source="2pWyTVWAHo8X-ECZg1oG-53" target="2pWyTVWAHo8X-ECZg1oG-34" edge="1">
          <mxGeometry relative="1" as="geometry">
            <Array as="points">
              <mxPoint x="240" y="760" />
              <mxPoint x="240" y="580" />
              <mxPoint y="580" />
              <mxPoint y="600" />
            </Array>
            <mxPoint x="86" y="760" as="sourcePoint" />
            <mxPoint x="-10" y="590" as="targetPoint" />
          </mxGeometry>
        </mxCell>
        <mxCell id="jva41PUH1tPTdCb0gD0E-28" value="&lt;font style=&quot;font-size: 11px;&quot;&gt;1*&lt;/font&gt;" style="text;html=1;align=center;verticalAlign=middle;resizable=0;points=[];autosize=1;strokeColor=none;fillColor=none;fontSize=16;" parent="WIyWlLk6GJQsqaUBKTNV-1" vertex="1">
          <mxGeometry x="-13" y="645" width="30" height="30" as="geometry" />
        </mxCell>
        <mxCell id="jva41PUH1tPTdCb0gD0E-29" value="&lt;font style=&quot;font-size: 11px;&quot;&gt;2*&lt;/font&gt;" style="text;html=1;align=center;verticalAlign=middle;resizable=0;points=[];autosize=1;strokeColor=none;fillColor=none;fontSize=16;" parent="WIyWlLk6GJQsqaUBKTNV-1" vertex="1">
          <mxGeometry x="160" y="645" width="30" height="30" as="geometry" />
        </mxCell>
        <mxCell id="jva41PUH1tPTdCb0gD0E-30" value="&lt;font style=&quot;font-size: 12px;&quot;&gt;1*&lt;/font&gt; &lt;font style=&quot;font-size: 12px;&quot;&gt;Estensione &lt;/font&gt;&lt;font style=&quot;font-size: 12px;&quot;&gt;della funzionalità &lt;/font&gt;&lt;br&gt;&lt;div style=&quot;&quot;&gt;&lt;span style=&quot;background-color: transparent; color: light-dark(rgb(0, 0, 0), rgb(255, 255, 255));&quot;&gt;&lt;font style=&quot;font-size: 12px;&quot;&gt;in&amp;nbsp;ActivityDiagram-InterazioneNPC.drawio&amp;nbsp;&lt;/font&gt;&lt;/span&gt;&lt;span style=&quot;background-color: transparent; color: rgba(0, 0, 0, 0); font-family: monospace; font-size: 0px;&quot;&gt;%3CmxGraphModel%3E%3Croot%3E%3CmxCell%20id%3D%220%22%2F%3E%3CmxCell%20id%3D%221%22%20parent%3D%220%22%2F%3E%3CmxCell%20id%3D%222%22%20value%3D%22%26lt%3Bfont%20style%3D%26quot%3Bfont-size%3A%2011px%3B%26quot%3B%26gt%3B1*%26lt%3B%2Ffont%26gt%3B%22%20style%3D%22text%3Bhtml%3D1%3Balign%3Dcenter%3BverticalAlign%3Dmiddle%3Bresizable%3D0%3Bpoints%3D%5B%5D%3Bautosize%3D1%3BstrokeColor%3Dnone%3BfillColor%3Dnone%3BfontSize%3D16%3B%22%20vertex%3D%221%22%20parent%3D%221%22%3E%3CmxGeometry%20x%3D%22-13%22%20y%3D%22645%22%20width%3D%2230%22%20height%3D%2230%22%20as%3D%22geometry%22%2F%3E%3C%2FmxCell%3E%3C%2Froot%3E%3C%2FmxGraphModel%3E&lt;/span&gt;&lt;/div&gt;" style="text;html=1;align=left;verticalAlign=middle;resizable=0;points=[];autosize=1;strokeColor=none;fillColor=none;fontSize=16;" parent="WIyWlLk6GJQsqaUBKTNV-1" vertex="1">
          <mxGeometry x="150" y="790" width="250" height="50" as="geometry" />
        </mxCell>
        <mxCell id="jva41PUH1tPTdCb0gD0E-32" value="&lt;font style=&quot;font-size: 12px;&quot;&gt;2*&lt;/font&gt; &lt;font style=&quot;font-size: 12px;&quot;&gt;Estensione &lt;/font&gt;&lt;font style=&quot;font-size: 12px;&quot;&gt;della funzionalità&amp;nbsp;&lt;/font&gt;&lt;font style=&quot;font-size: 12px;&quot;&gt;&lt;font&gt;&lt;br&gt;&lt;/font&gt;&lt;/font&gt;&lt;span style=&quot;background-color: transparent;&quot;&gt;&lt;span style=&quot;font-size: 12px;&quot;&gt;&lt;font&gt;in ActivityDiagram-MenuInGioco.drawio&lt;/font&gt;&lt;/span&gt;&lt;span style=&quot;font-size: 12px;&quot;&gt;&amp;nbsp;&lt;/span&gt;&lt;/span&gt;&lt;span style=&quot;background-color: transparent; color: rgba(0, 0, 0, 0); font-family: monospace; font-size: 0px;&quot;&gt;%3CmxGraphModel%3E%3Croot%3E%3CmxCell%20id%3D%220%22%2F%3E%3CmxCell%20id%3D%221%22%20parent%3D%220%22%2F%3E%3CmxCell%20id%3D%222%22%20value%3D%22%26lt%3Bfont%20style%3D%26quot%3Bfont-size%3A%2011px%3B%26quot%3B%26gt%3B1*%26lt%3B%2Ffont%26gt%3B%22%20style%3D%22text%3Bhtml%3D1%3Balign%3Dcenter%3BverticalAlign%3Dmiddle%3Bresizable%3D0%3Bpoints%3D%5B%5D%3Bautosize%3D1%3BstrokeColor%3Dnone%3BfillColor%3Dnone%3BfontSize%3D16%3B%22%20vertex%3D%221%22%20parent%3D%221%22%3E%3CmxGeometry%20x%3D%22-13%22%20y%3D%22645%22%20width%3D%2230%22%20height%3D%2230%22%20as%3D%22geometry%22%2F%3E%3C%2FmxCell%3E%3C%2Froot%3E%3C%2FmxGraphModel%3E&lt;/span&gt;" style="text;html=1;align=left;verticalAlign=middle;resizable=0;points=[];autosize=1;strokeColor=none;fillColor=none;fontSize=16;" parent="WIyWlLk6GJQsqaUBKTNV-1" vertex="1">
          <mxGeometry x="150" y="840" width="240" height="50" as="geometry" />
        </mxCell>
      </root>
    </mxGraphModel>
  </diagram>
</mxfile>
